<svg id="Layer_1" data-name="Layer 1" xmlns="http://www.w3.org/2000/svg" xmlns:xlink="http://www.w3.org/1999/xlink" viewBox="0 0 100 100"><defs><style>.cls-1{fill:url(#linear-gradient);}.cls-2{fill:#f1f2f2;}</style><linearGradient id="linear-gradient" y1="50" x2="100" y2="50" gradientUnits="userSpaceOnUse"><stop offset="0" stop-color="#80a848"/><stop offset="1" stop-color="#365c1e"/></linearGradient></defs><rect class="cls-1" width="100" height="100" rx="14.78"/><path class="cls-2" d="M31.13,24.3c.78,3,1.53,6,2.35,9s1.74,6.1,2.59,9.15,1.78,6.3,2.61,9.47a88,88,0,0,1,2,9.49C36.5,58.8,32.18,56.79,27.07,57c.65.36,1.58.37,2.24.73a31,31,0,0,1,4,2.69c8,6.17,9.67,10.8,5.48,21.12a11.47,11.47,0,0,1-4.32,4.6c-4.46,3-9.62,3.67-15.12,4C20.3,88,21.24,86.05,21.89,84c.93-2.83.89-5.51-1.15-8.09s-1.64-3.8,1.57-7.57c-10.2-1-15.76-7.44-19.81-16.52,6.5-2.35,11.89-7.49,19.34-5.37-1-3.13-2.38-6.23-2.9-9.47a21,21,0,0,1,3.12-14.65c1.81-3,2.65-6.6,3.85-10,.35-1,.36-2,.61-3,.17-.64.39-.37.79,0s.59.65.91.94c.55.49,1.1,1,1.67,1.42,1.12.91,2.29,1.76,3.49,2.56a80.23,80.23,0,0,0,7.25,4.19,19.88,19.88,0,0,1,10.71,14.9c.18,1.1.39,2.2.6,3.29,0,.06.16.1,0,0,1.88-1.34,3.51-3.18,5.51-3.78,4.35-1.3,8.9-2,13.54-2.93,1.79,7.15,2,13.51-4.25,18.7-4-2.07-6.34-2.15-10.78-2.86C53.75,51.64,53.44,57,56,62.16c-1.86,2.06-2.11,3.61-2.25,6.39L48.65,71a26.52,26.52,0,0,1,2.21-20.45c-.22-.1-1.35,1.52-1.78,2.24-1.36,2.69-2.72,5.38-4.36,8.64M70.81,72.37l-1.93-4.88c.22,1.7.92,3.49.55,5.81a27.72,27.72,0,0,1-1.14,5.14c-1.4,4.12-3,8.16-4.59,12.23l.56.25a16.91,16.91,0,0,0,.94-1.72c1.39-3.3,2.78-6.6,4.1-9.92,1.1-2.8,2.08-5.65,3.17-8.45.89-2.27,5.7-4.36,9.6-4-1.28.61-2.16,1.05-3,1.45a11.09,11.09,0,0,0-5.44,5.18,5.76,5.76,0,0,0,.53,6.62c2.52,3.27,6.1,4.88,9.61,6.17.36-2.53.14-5,1.14-6.93s1.76-3.51.19-5.62c6.12-.54,9.74-3.82,12.45-9.28L86.66,59.76a13.3,13.3,0,0,0,1.52-10.92c-1-3.47-2.18-6.92-3.3-10.46-1.59,1.07-3,2.14-4.46,3s-3.2,1.37-4.73,2.16A12.94,12.94,0,0,0,69.25,51c-.26.73-.55,1.45-.85,2.25a17.45,17.45,0,0,0-11-3.91c-1.59,5.13-1.05,10,2.42,14.24l-3,1.84c.48,4-2.53,5.69-6.06,7.45,3.92,2.79,7.63,4.62,12,4.28,2.56-.19,4.77-.84,5.91-3.63a10.69,10.69,0,0,0-.31-4,16.33,16.33,0,0,0-4.4-8.82c3.31,1.34,5.5,3.77,7.51,7.25,2.68-5.8,6.78-14.47,9.31-19.93M44.63,68c2.08,6.09,4,12.61,6.08,18.69L52,86.21C48.19,74.9,44.8,63.46,40.07,52.47c1.06,3.94,2.36,7.82,3.49,11.73"/></svg>